<svg xmlns="http://www.w3.org/2000/svg" viewBox="0 0 1024 1024">
  <path d="M938.667 768.213c0 23.467-19.029 42.453-42.453 42.453h-341.76a42.45 42.45 0 0 1-42.453-42.453 42.45 42.45 0 0 1 42.453-42.453h341.76c23.467 0 42.453 18.987 42.453 42.453zm0-256.213c0 23.467-19.029 42.453-42.453 42.453H127.787a42.451 42.451 0 0 1-30.019-72.473 42.454 42.454 0 0 1 30.019-12.433h768.427c23.467 0 42.453 19.029 42.453 42.453zm-42.454-213.76a42.454 42.454 0 0 0 0-84.906H383.786a42.444 42.444 0 0 0-30.019 12.435 42.46 42.46 0 0 0-12.435 30.019 42.444 42.444 0 0 0 12.435 30.019 42.46 42.46 0 0 0 30.019 12.435h512.427z"/>
</svg>
